<?xml version="1.0" encoding="UTF-8" standalone="no"?>
<!-- Created with Inkscape (http://www.inkscape.org/) -->

<svg
   width="64pt"
   height="64pt"
   viewBox="0 0 22.577778 22.577778"
   version="1.1"
   id="svg831"
   inkscape:version="1.1.1 (3bf5ae0d25, 2021-09-20)"
   sodipodi:docname="Export - Unblash - 64px.svg"
   inkscape:export-filename="C:\Users\User\Desktop\CARLOS PROJECT\2. FEBRUARI 1\DONE\13 - Pineapple.png"
   inkscape:export-xdpi="576"
   inkscape:export-ydpi="576"
   xmlns:inkscape="http://www.inkscape.org/namespaces/inkscape"
   xmlns:sodipodi="http://sodipodi.sourceforge.net/DTD/sodipodi-0.dtd"
   xmlns="http://www.w3.org/2000/svg"
   xmlns:svg="http://www.w3.org/2000/svg"
   xmlns:rdf="http://www.w3.org/1999/02/22-rdf-syntax-ns#"
   xmlns:cc="http://creativecommons.org/ns#"
   xmlns:dc="http://purl.org/dc/elements/1.1/">
  <defs
     id="defs825">
    <pattern
       id="EMFhbasepattern"
       patternUnits="userSpaceOnUse"
       width="6"
       height="6"
       x="0"
       y="0" />
    <pattern
       id="EMFhbasepattern-9"
       patternUnits="userSpaceOnUse"
       width="6"
       height="6"
       x="0"
       y="0" />
    <pattern
       id="EMFhbasepattern-0"
       patternUnits="userSpaceOnUse"
       width="6"
       height="6"
       x="0"
       y="0" />
    <pattern
       id="EMFhbasepattern-7"
       patternUnits="userSpaceOnUse"
       width="6"
       height="6"
       x="0"
       y="0" />
    <pattern
       id="EMFhbasepattern-2"
       patternUnits="userSpaceOnUse"
       width="6"
       height="6"
       x="0"
       y="0" />
    <pattern
       id="EMFhbasepattern-98"
       patternUnits="userSpaceOnUse"
       width="6"
       height="6"
       x="0"
       y="0" />
    <pattern
       id="EMFhbasepattern-6"
       patternUnits="userSpaceOnUse"
       width="6"
       height="6"
       x="0"
       y="0" />
    <pattern
       id="EMFhbasepattern-01"
       patternUnits="userSpaceOnUse"
       width="6"
       height="6"
       x="0"
       y="0" />
    <pattern
       id="EMFhbasepattern-07"
       patternUnits="userSpaceOnUse"
       width="6"
       height="6"
       x="0"
       y="0" />
    <pattern
       id="EMFhbasepattern-8"
       patternUnits="userSpaceOnUse"
       width="6"
       height="6"
       x="0"
       y="0" />
    <pattern
       id="EMFhbasepattern-4"
       patternUnits="userSpaceOnUse"
       width="6"
       height="6"
       x="0"
       y="0" />
    <pattern
       id="EMFhbasepattern-40"
       patternUnits="userSpaceOnUse"
       width="6"
       height="6"
       x="0"
       y="0" />
    <pattern
       id="EMFhbasepattern-08"
       patternUnits="userSpaceOnUse"
       width="6"
       height="6"
       x="0"
       y="0" />
    <pattern
       id="EMFhbasepattern-04"
       patternUnits="userSpaceOnUse"
       width="6"
       height="6"
       x="0"
       y="0" />
    <pattern
       id="EMFhbasepattern-014"
       patternUnits="userSpaceOnUse"
       width="6"
       height="6"
       x="0"
       y="0" />
    <pattern
       id="EMFhbasepattern-27"
       patternUnits="userSpaceOnUse"
       width="6"
       height="6"
       x="0"
       y="0" />
    <pattern
       id="EMFhbasepattern-09"
       patternUnits="userSpaceOnUse"
       width="6"
       height="6"
       x="0"
       y="0" />
    <pattern
       id="EMFhbasepattern-5"
       patternUnits="userSpaceOnUse"
       width="6"
       height="6"
       x="0"
       y="0" />
    <pattern
       id="EMFhbasepattern-018"
       patternUnits="userSpaceOnUse"
       width="6"
       height="6"
       x="0"
       y="0" />
  </defs>
  <sodipodi:namedview
     id="base"
     pagecolor="#ffffff"
     bordercolor="#666666"
     borderopacity="1.0"
     inkscape:pageopacity="0.0"
     inkscape:pageshadow="2"
     inkscape:zoom="9.1757813"
     inkscape:cx="42.612175"
     inkscape:cy="42.666667"
     inkscape:document-units="pt"
     inkscape:current-layer="svg831"
     showgrid="false"
     units="pt"
     inkscape:window-width="1920"
     inkscape:window-height="1001"
     inkscape:window-x="-9"
     inkscape:window-y="41"
     inkscape:window-maximized="1"
     inkscape:pagecheckerboard="true"
     inkscape:showpageshadow="false"
     inkscape:object-paths="true"
     inkscape:snap-intersection-paths="true"
     inkscape:snap-smooth-nodes="true"
     inkscape:snap-midpoints="true"
     showguides="true"
     inkscape:snap-bbox="true"
     inkscape:bbox-nodes="true"
     inkscape:snap-nodes="false"
     inkscape:snap-global="true">
    <inkscape:grid
       type="xygrid"
       id="grid1378" />
    <sodipodi:guide
       position="0.97013831,21.607643"
       orientation="78.000048,0"
       id="guide1380"
       inkscape:locked="false" />
    <sodipodi:guide
       position="0.97013831,0.97013129"
       orientation="0,78.000005"
       id="guide1382"
       inkscape:locked="false" />
    <sodipodi:guide
       position="21.607639,0.97013129"
       orientation="-78.000048,0"
       id="guide1384"
       inkscape:locked="false" />
    <sodipodi:guide
       position="21.607639,21.607643"
       orientation="0,-78.000005"
       id="guide1386"
       inkscape:locked="false" />
  </sodipodi:namedview>
  <metadata
     id="metadata828">
    <rdf:RDF>
      <cc:Work
         rdf:about="">
        <dc:format>image/svg+xml</dc:format>
        <dc:type
           rdf:resource="http://purl.org/dc/dcmitype/StillImage" />
      </cc:Work>
    </rdf:RDF>
  </metadata>
  <g
     inkscape:label="Icon"
     inkscape:groupmode="layer"
     id="layer1"
     transform="translate(0,-274.42223)" />
  <g
     id="g18331"
     style="display:inline;stroke-width:0.803358"
     transform="matrix(1.2447755,0,0,1.2447755,38.719409,-347.8746)">
    <path
       style="color:#000000;fill:#432355;stroke-width:0.803358;stroke-linecap:round;stroke-linejoin:round;-inkscape-stroke:none"
       d="m -23.146484,290.47266 -2.779297,1.47265 1.878908,2.61912 c 1.493199,0.45945 2.552035,-0.67211 2.359375,-1.98828 z"
       id="path198698"
       sodipodi:nodetypes="ccccc" />
    <path
       style="color:#000000;fill:#432355;stroke-width:0.803358;stroke-linecap:round;stroke-linejoin:round;-inkscape-stroke:none"
       d="m -25.812501,294.66031 0.664063,-3.17383 -2.878906,-0.69918 c -0.42616,0.12635 -0.807624,0.41178 -1.046875,0.82617 -0.418085,0.72415 -0.27603,1.62349 0.296875,2.18555 z"
       id="path198716"
       sodipodi:nodetypes="cccccc" />
    <path
       style="color:#000000;fill:#432355;stroke-width:0.803358;stroke-linecap:round;stroke-linejoin:round;-inkscape-stroke:none"
       d="m -27.355469,287.92969 c -0.55261,0.0588 -1.072756,0.37388 -1.371093,0.89062 -0.495665,0.85852 -0.198356,1.96331 0.660156,2.45899 0.253714,0.14649 0.530135,0.2257 0.804687,0.24023 l 1.57617,0.0585 0.498047,-3.08984 z"
       id="path197564"
       sodipodi:nodetypes="csscccc" />
    <path
       id="path229806"
       style="color:#000000;fill:#381e47;fill-opacity:1;stroke-width:0.803358;stroke-linecap:round;stroke-linejoin:round;-inkscape-stroke:none"
       d="m -28.567772,293.90356 c -0.288735,-0.53313 -0.301302,-1.19987 0.02273,-1.76113 0.188245,-0.32605 0.464502,-0.57187 0.781349,-0.72347 l -0.690901,-0.44134 c -0.248701,0.15198 -0.464201,0.36646 -0.619601,0.63562 -0.418084,0.72415 -0.276286,1.62386 0.296624,2.18592 z"
       sodipodi:nodetypes="csccccc" />
    <path
       id="path222719"
       style="color:#000000;fill:#381e47;fill-opacity:1;stroke-width:0.803358;stroke-linecap:round;stroke-linejoin:round;-inkscape-stroke:none"
       d="m -27.355433,287.92971 c -0.552611,0.0588 -1.072639,0.37364 -1.370978,0.89038 -0.479859,0.83115 -0.216453,1.89304 0.579811,2.40967 -0.355907,-0.54999 -0.399487,-1.27629 -0.05064,-1.8805 0.298339,-0.51674 0.818367,-0.83159 1.370978,-0.89039 z"
       sodipodi:nodetypes="cscscc" />
    <path
       style="color:#000000;fill:#432355;stroke-width:0.803358;stroke-linecap:round;stroke-linejoin:round;-inkscape-stroke:none"
       d="m -26.708983,288.48048 c -0.285306,0.8031 0.03715,1.72039 0.798828,2.16015 l 2.683594,-1.31441 c 0.09707,-0.70458 -0.231565,-1.42868 -0.882813,-1.80469 z"
       id="path197756"
       sodipodi:nodetypes="ccccc" />
    <path
       id="path228278"
       style="color:#000000;fill:#381e47;fill-opacity:1;stroke-width:0.803358;stroke-linecap:round;stroke-linejoin:round;-inkscape-stroke:none"
       d="m -26.708962,288.48065 c -0.27496,0.77398 0.01463,1.65351 0.717786,2.10995 -0.275167,-0.61638 -0.362586,-1.22014 -0.137979,-1.66869 l 1.179771,-1.33997 z"
       sodipodi:nodetypes="ccccc" />
    <path
       style="color:#000000;fill:#612d82;stroke-width:0.803358;stroke-linecap:round;stroke-linejoin:round;-inkscape-stroke:none"
       d="m -26.394531,284.63477 a 0.26460945,0.26460945 0 0 0 -0.189453,0.043 c -0.878003,0.58972 -1.449331,1.38321 -1.527344,2.22852 a 0.26460945,0.26460945 0 0 0 0,0.006 c -0.04632,0.66545 0.282214,1.33091 0.896484,1.68555 0.858522,0.49566 1.963319,0.19835 2.458985,-0.66016 0.02183,-0.0378 0.03584,-0.0783 0.05469,-0.11719 0.804134,0.28971 1.720348,0.0659 2.16211,-0.69922 0.324415,-0.56191 0.311464,-1.22905 0.02148,-1.76172 a 0.26460945,0.26460945 0 0 0 -0.191406,-0.13476 z"
       id="path197372" />
    <path
       id="path215781"
       style="color:#000000;fill:#552773;fill-opacity:1;stroke-width:0.803358;stroke-linecap:round;stroke-linejoin:round;-inkscape-stroke:none"
       d="m -26.583908,284.67776 c -1.284223,0.92935 -2.271636,2.81124 -0.711583,3.87036 -0.81155,-1.55772 0.283757,-2.6812 1.24075,-3.3412 z"
       sodipodi:nodetypes="cccc" />
    <path
       style="color:#000000;fill:#349951;stroke-width:0.803358;stroke-linecap:round;stroke-linejoin:round;-inkscape-stroke:none"
       d="m -18.851562,283.82227 c -0.52595,-0.0134 -1.061237,0.18565 -1.527344,0.6914 a 0.26460897,0.26460897 0 0 0 -0.04102,0.0606 l -0.357422,0.69726 a 0.26460897,0.26460897 0 0 0 -0.01953,0.0527 c -0.31074,1.1597 0.385104,2.20726 1.277344,2.51953 a 0.26460897,0.26460897 0 0 0 0.171875,0.002 c 1.000326,-0.33793 2.058594,-0.54664 2.99414,-1.14648 a 0.26460897,0.26460897 0 0 0 0.109375,-0.3086 c -0.283833,-0.83903 -0.899508,-1.13354 -1.425781,-1.31445 l 0.433594,-0.38086 a 0.26460897,0.26460897 0 0 0 -0.07031,-0.4414 c -0.510847,-0.21898 -1.018972,-0.4182 -1.544921,-0.43164 z"
       id="path196988" />
    <path
       id="path214173"
       style="color:#000000;fill:#26783f;fill-opacity:1;stroke-width:0.803358;stroke-linecap:round;stroke-linejoin:round;-inkscape-stroke:none"
       d="m -19.347657,287.84603 c 1.000326,-0.33793 2.058587,-0.54634 2.994133,-1.14618 0.103387,-0.0652 0.14867,-0.19271 0.109554,-0.30851 -0.283833,-0.83903 -0.89948,-1.13374 -1.425753,-1.31465 l 0.433565,-0.38085 c 0.145434,-0.12839 0.107841,-0.36445 -0.07028,-0.44132 -0.502912,-0.23493 -1.03957,-0.47987 -1.850016,-0.4154 0.480341,0.0809 0.941975,0.25308 1.32085,0.41491 0.178121,0.0769 0.215714,0.31293 0.07028,0.44132 l -0.433566,0.38085 c 0.526273,0.18091 1.14192,0.47562 1.425753,1.31465 0.03912,0.1158 -0.0062,0.24332 -0.109554,0.30851 -0.873413,0.56 -1.853812,0.77947 -2.794145,1.08107 z"
       sodipodi:nodetypes="cccccccccccccc" />
    <path
       id="path208957"
       style="color:#000000;fill:#26783f;fill-opacity:1;stroke-width:0.803358;stroke-linecap:round;stroke-linejoin:round;-inkscape-stroke:none"
       d="m -19.347688,287.84601 c 0.993893,-0.33575 2.044956,-0.54381 2.976046,-1.13481 -0.891867,-0.88743 -2.115743,-0.81221 -2.971881,-0.0548 -0.289764,0.28976 -0.377733,0.7582 -0.326591,1.10747 z"
       sodipodi:nodetypes="ccccc" />
    <path
       style="color:#000000;fill:#612d82;fill-opacity:1;stroke-width:0.803358;stroke-linecap:round;stroke-linejoin:round;-inkscape-stroke:none"
       d="m -24.397786,284.57031 c -0.771358,0.16446 -1.262878,0.74963 -1.380859,1.39649 -0.117982,0.64685 0.128938,1.36797 0.761718,1.80273 a 0.26460945,0.26460945 0 0 0 0.01758,0.0117 c 0.858518,0.49565 1.965275,0.19837 2.460938,-0.66016 0.324415,-0.56191 0.311464,-1.22905 0.02148,-1.76172 a 0.26460945,0.26460945 0 0 0 -0.132812,-0.11914 l -1.591797,-0.65625 a 0.26460945,0.26460945 0 0 0 -0.15625,-0.0137 z"
       id="path30749" />
    <path
       id="path221150"
       style="fill:#552773;fill-opacity:1;stroke-width:3.03631;stroke-linecap:round;stroke-linejoin:round"
       d="m -100.47461,17.427734 c -2.64615,1.777317 -4.5547,4.04422 -5.36914,6.509766 2.51501,1.789169 5.929352,2.226909 9.007812,0.724609 0.208782,1.28247 1.228319,2.443473 2.546876,2.44336 3.972975,-2.8e-4 7.48562,-1.408813 10.011718,-3.730469 0.01833,-1.175488 -0.267045,-2.340449 -0.828125,-3.371094 z"
       transform="matrix(0.26458334,0,0,0.26458334,0,280.06666)"
       sodipodi:nodetypes="ccccccc" />
    <path
       id="path251976"
       style="color:#000000;fill:#552773;fill-opacity:1;stroke-width:0.803358;stroke-linecap:round;stroke-linejoin:round;-inkscape-stroke:none"
       d="m -24.345284,284.56406 c -0.01773,2.3e-4 -0.03539,0.002 -0.05271,0.006 -0.771358,0.16446 -1.262813,0.74944 -1.380794,1.3963 -0.125442,1.3006 0.698691,2.20277 1.939935,2.03504 -0.947286,-0.14122 -1.54147,-1.21934 -1.410767,-2.03504 0.105174,-0.57665 0.507492,-1.10383 1.139981,-1.32809 l -0.131773,-0.0543 c -0.03291,-0.0137 -0.06824,-0.0205 -0.10387,-0.0202 z"
       sodipodi:nodetypes="ccccccccc" />
    <path
       style="color:#000000;fill:#032927;stroke-width:0.803358;stroke-linecap:round;stroke-linejoin:round;-inkscape-stroke:none"
       d="m -20.890625,285.48047 c -0.270408,0.46835 -1.019795,0.81457 -1.699219,0.79883 -0.146193,-0.004 -0.267791,0.11161 -0.271484,0.25781 -0.0028,0.14619 0.113579,0.26689 0.259766,0.26953 0.853332,0.0198 1.758248,-0.35285 2.167968,-1.0625 z"
       id="path31277"
       sodipodi:nodetypes="cccccc" />
    <path
       style="color:#000000;fill:#032927;stroke-width:0.803358;stroke-linecap:round;stroke-linejoin:round;-inkscape-stroke:none"
       d="m -20.890625,285.48051 c -1.027041,1.77888 -0.369927,3.00776 0.269531,3.37695 0.126724,0.0729 0.288528,0.0292 0.361328,-0.0976 0.07286,-0.12674 0.02913,-0.28855 -0.09766,-0.36133 -0.328005,-0.18937 -1.004115,-1.04706 -0.07617,-2.6543 z"
       id="path31545"
       sodipodi:nodetypes="cccccc" />
    <path
       style="color:#000000;fill:#50b86b;stroke-width:0.803358;stroke-linecap:round;stroke-linejoin:round;-inkscape-stroke:none"
       d="m -17.523437,286.60156 c -0.654364,-0.12641 -1.312728,0.1064 -1.820313,0.58399 a 0.26460897,0.26460897 0 0 0 -0.02148,0.0234 c -0.273005,0.32979 -0.363705,0.72129 -0.304688,1.08399 0.05902,0.36269 0.249676,0.69572 0.5,0.99219 0.497912,0.58969 1.239195,1.04521 1.900391,1.23046 0.316553,0.11802 0.695142,0.16953 1.123047,0.084 a 0.26460897,0.26460897 0 0 0 0.207031,-0.20899 c 0.173621,-0.8681 -0.21297,-1.4298 -0.578125,-1.8496 l 0.568359,-0.11524 a 0.26460897,0.26460897 0 0 0 0.177735,-0.38867 c -0.472486,-0.83215 -1.09759,-1.30914 -1.751953,-1.43555 z"
       id="path197180" />
    <path
       id="path253662"
       style="fill:#26783f;fill-opacity:1;stroke-width:3.03631;stroke-linecap:round;stroke-linejoin:round"
       d="m -71.597656,25.748047 c -2.163496,0.91476 -3.050552,3.264493 -2.746094,5.34375 0.223068,1.370797 0.944519,2.629483 1.890625,3.75 1.511321,1.789896 3.615083,3.251753 5.679687,4.121094 2.487799,-5.228205 1.230947,-11.255778 -4.824218,-13.214844 z"
       transform="matrix(0.26458334,0,0,0.26458334,0,280.06666)"
       sodipodi:nodetypes="ccccc" />
    <path
       id="path241605"
       style="color:#000000;fill:#381e47;fill-opacity:1;stroke-width:0.803358;stroke-linecap:round;stroke-linejoin:round;-inkscape-stroke:none"
       d="m -26.00203,292.35171 1.340488,1.43144 c 0.442071,-0.21492 0.791989,-0.36253 0.999424,-0.71258 0.698913,0.20377 1.467715,-0.0372 1.922881,-0.61909 l -1.051616,-1.87327 z"
       sodipodi:nodetypes="cccccc" />
    <path
       style="color:#000000;fill:#432355;stroke-width:0.803358;stroke-linecap:round;stroke-linejoin:round;-inkscape-stroke:none"
       d="m -22.492187,290.26562 c -0.104836,0.54299 -0.258856,1.12819 -0.302747,1.66016 0.135659,0.39777 0.413054,0.7524 0.804688,0.97852 0.858517,0.49566 1.963319,0.19836 2.458984,-0.66016 0.314407,-0.54454 0.313188,-1.18899 0.04883,-1.71289 -0.393511,-0.36534 -0.923202,-0.64285 -1.384768,-0.94336 -0.642878,-0.14465 -1.302047,0.27742 -1.624987,0.67773 z"
       id="path198314"
       sodipodi:nodetypes="ccccccc" />
    <path
       style="color:#000000;fill:#612d82;stroke-width:0.803358;stroke-linecap:round;stroke-linejoin:round;-inkscape-stroke:none"
       d="m -27.103515,293.4668 c -0.429259,-0.24784 -0.92153,-0.29715 -1.367188,-0.17774 -0.445657,0.11942 -0.845919,0.40863 -1.09375,0.83789 -0.495664,0.85852 -0.198355,1.96331 0.660156,2.45899 0.858519,0.49565 1.963322,0.20032 2.458985,-0.65821 z"
       id="path198710"
       sodipodi:nodetypes="ccsccc" />
    <path
       style="color:#000000;fill:#612d82;stroke-width:0.803358;stroke-linecap:round;stroke-linejoin:round;-inkscape-stroke:none"
       d="m -26.380859,292.90234 c -0.269387,0.15293 -0.504385,0.37929 -0.669922,0.66602 -0.495665,0.85851 -0.198355,1.96331 0.660156,2.45898 0.858519,0.49566 1.963322,0.20032 2.458984,-0.6582 0.495666,-0.85851 0.200319,-1.96528 -0.658203,-2.46094 z"
       id="path198704"
       sodipodi:nodetypes="cccccc" />
    <path
       id="path240031"
       style="color:#000000;fill:#552773;fill-opacity:1;stroke-width:0.803358;stroke-linecap:round;stroke-linejoin:round;-inkscape-stroke:none"
       d="m -26.380819,292.90258 c -0.269388,0.15293 -0.50419,0.37886 -0.669727,0.66559 -0.480054,0.83147 -0.216683,1.89379 0.580327,2.41019 -0.356262,-0.55006 -0.40013,-1.2766 -0.05116,-1.88102 0.165537,-0.28673 0.400338,-0.51266 0.669727,-0.66559 z"
       sodipodi:nodetypes="cccccc" />
    <path
       id="path255273"
       style="fill:#552773;fill-opacity:1;stroke-width:3.03631;stroke-linecap:round;stroke-linejoin:round"
       d="m -99.707031,48.513672 c -1.388059,0.918632 -2.223089,1.901049 -2.876949,3.205078 4.105962,2.501258 9.220381,1.267571 11.820308,-1.181641 -0.552413,-0.796662 -1.281776,-1.486935 -2.173828,-2.001953 z"
       transform="matrix(0.26458334,0,0,0.26458334,0,280.06666)"
       sodipodi:nodetypes="ccccc" />
    <path
       style="color:#000000;fill:#612d82;stroke-width:0.803358;stroke-linecap:round;stroke-linejoin:round;-inkscape-stroke:none"
       d="m -26.146481,289.91416 c -0.480782,0.10263 -0.919043,0.40312 -1.183594,0.86133 -0.495665,0.85851 -0.19836,1.96332 0.660156,2.45898 0.858519,0.49567 1.963322,0.20033 2.458985,-0.6582 0.05169,-0.0895 0.09403,-0.18136 0.128906,-0.27539 0.0029,-0.006 0.0055,-0.0129 0.0078,-0.0195 0.14377,-0.49336 0.248157,-1.1067 -0.02344,-1.63086 z"
       id="path197954"
       sodipodi:nodetypes="cscccccc" />
    <path
       style="color:#000000;fill:#50b86b;stroke-width:0.803358;stroke-linecap:round;stroke-linejoin:round;-inkscape-stroke:none"
       d="m -27.244141,282.96875 c -0.127259,0.12879 -0.09048,0.34449 0.07227,0.42383 l 0.748047,0.36914 c -0.590685,0.37912 -1.287614,0.93497 -1.361328,2.07812 -0.0068,0.10642 0.05095,0.20652 0.146484,0.25391 1.021998,0.50533 1.847428,0.18363 2.470703,-0.13672 l -0.04297,0.5293 c -0.01318,0.15446 0.108646,0.28712 0.263671,0.28711 1.147005,-8e-5 2.101962,-0.48828 2.677735,-1.23633 0.575773,-0.74805 0.766666,-1.75851 0.339466,-2.6507 -1.308494,-2.06267 -3.894059,-1.36929 -5.314078,0.0823 z"
       id="path196715"
       sodipodi:nodetypes="ccccccccscc" />
    <path
       id="path246662"
       style="color:#000000;fill:#381e47;fill-opacity:1;stroke-width:0.803358;stroke-linecap:round;stroke-linejoin:round;-inkscape-stroke:none"
       d="m -22.492169,290.26552 -0.310575,1.52136 c 0,0.89271 1.109749,1.45476 1.972538,1.3379 -0.7076,-0.1209 -1.443371,-0.75202 -1.443371,-1.3379 l 0.310575,-1.52136 c 0.217591,-0.36662 0.715117,-0.62006 1.070221,-0.69143 -0.653688,-0.0191 -1.232728,0.24091 -1.599388,0.69143 z"
       sodipodi:nodetypes="ccccccc" />
    <path
       style="color:#000000;fill:#032927;stroke-width:0.803358;stroke-linecap:round;stroke-linejoin:round;-inkscape-stroke:none"
       d="m -22.617187,282.04102 c 0,1.40556 1.367048,2.0804 2.537109,1.63276 -0.756848,1.92227 -2.048618,3.75124 -3.072266,5.68554 -0.06804,0.12944 -0.01818,0.28952 0.111328,0.35743 0.129435,0.068 0.289515,0.0182 0.357422,-0.11133 0.921139,-1.69634 2.629674,-3.97841 3.330119,-6.25585 1.178613,-0.56274 2.245048,-1.25698 3.460938,-1.61914 0.547899,-0.1592 0.983384,-0.16622 1.224609,-0.0215 0.12469,0.0742 0.285886,0.0342 0.361328,-0.0898 0.07553,-0.12512 0.0353,-0.28778 -0.08984,-0.36328 -0.456982,-0.27419 -1.036027,-0.21197 -1.644532,-0.0352 -1.18356,0.38782 -2.188926,0.95465 -3.21875,1.48633 0.265327,-1.31435 -0.230572,-2.45983 -1.558112,-2.45983 -0.989903,-0.007 -1.799355,0.80254 -1.799353,1.79387 z m 2.791015,0.95116 c -0.950608,0.59332 -2.225788,0.24196 -2.26172,-0.95118 0,-0.70535 0.566138,-1.27149 1.271485,-1.27149 1.162169,0 1.225029,1.29771 0.990235,2.22267 z"
       id="path40387"
       sodipodi:nodetypes="cccccccccccccccccc" />
    <path
       id="path231541"
       style="color:#000000;fill:#552773;fill-opacity:1;stroke-width:0.803358;stroke-linecap:round;stroke-linejoin:round;-inkscape-stroke:none"
       d="m -26.146725,289.91396 c -0.48078,0.10263 -0.918837,0.40324 -1.183389,0.86145 -0.480055,0.83147 -0.216175,1.8938 0.580842,2.41019 -0.356274,-0.55007 -0.40065,-1.27659 -0.05168,-1.88103 0.264551,-0.45821 0.702609,-0.75881 1.183388,-0.86144 0.456614,-0.0434 0.956359,-0.0211 1.337904,0.12106 0.06352,0.0245 0.123753,0.0528 0.18035,0.0837 -0.490851,-0.74308 -1.356237,-0.84827 -2.047415,-0.73393 z"
       sodipodi:nodetypes="cscscccc" />
    <path
       style="color:#000000;fill:#612d82;stroke-width:0.803358;stroke-linecap:round;stroke-linejoin:round;-inkscape-stroke:none"
       d="m -24.152344,289.07617 c -0.445656,0.11942 -0.845918,0.40668 -1.09375,0.83594 -0.495665,0.85852 -0.19836,1.96527 0.660157,2.46094 0.858518,0.49566 1.963321,0.19836 2.458984,-0.66016 0.495665,-0.85852 0.200314,-1.96332 -0.658203,-2.45898 -0.429259,-0.24784 -0.921532,-0.29715 -1.367188,-0.17774 z"
       id="path197948" />
    <path
       style="color:#000000;fill:#612d82;stroke-width:0.803358;stroke-linecap:round;stroke-linejoin:round;-inkscape-stroke:none"
       d="m -21.203125,288.2168 c -0.495665,0.85851 -0.19836,1.96332 0.660156,2.45898 0.858516,0.49567 1.963317,0.19836 2.458985,-0.66016 0.495664,-0.85851 0.200313,-1.96331 -0.658203,-2.45898 -0.930229,-0.43503 -1.978584,-0.14611 -2.460938,0.66016 z"
       id="path198506"
       sodipodi:nodetypes="ccscc" />
    <path
       id="path47390"
       style="color:#000000;fill:#032927;stroke-width:3.03631;stroke-linecap:round;stroke-linejoin:round;-inkscape-stroke:none"
       d="m -92.318359,11.521484 2.4375,1.216797 c -1.503725,0.753667 -3.033802,1.518236 -4.548829,2.275391 -0.491445,0.246177 -0.692079,0.842845 -0.449218,1.335937 0.24557,0.496696 0.848192,0.69903 1.34375,0.451172 l 2.77539,-1.388672 v 2.605469 c 0.0011,0.550001 0.446096,0.9959 0.996094,0.998047 0.553047,0.0022 1.002831,-0.444996 1.003906,-0.998047 v -3.605469 c 1.630853,-0.817069 3.262828,-1.631896 4.894532,-2.447265 0.49375,-0.248418 0.692329,-0.850278 0.443359,-1.34375 -0.118035,-0.236994 -0.325239,-0.417507 -0.576172,-0.501953 -0.251654,-0.08205 -0.525574,-0.06098 -0.761719,0.05859 l -2.890625,1.445313 -3.773437,-1.8867189 c -0.468139,-0.1986584 -1.103971,-0.035765 -1.347928,0.4503399 -0.243956,0.486105 -0.04256,1.088535 0.453397,1.334819 z"
       transform="matrix(0.26458334,0,0,0.26458334,0,280.06666)"
       sodipodi:nodetypes="cccccccscccccccccc" />
    <path
       id="path236819"
       style="color:#000000;fill:#552773;fill-opacity:1;stroke-width:0.803358;stroke-linecap:round;stroke-linejoin:round;-inkscape-stroke:none"
       d="m -24.152532,289.07592 c -0.445657,0.11942 -0.845641,0.40686 -1.093473,0.83612 -0.480177,0.8317 -0.21613,1.89641 0.581361,2.41278 -0.356862,-0.55076 -0.401376,-1.27881 -0.05219,-1.88361 0.247832,-0.42926 0.647816,-0.7167 1.093472,-0.83612 0.577733,-0.10016 1.030889,-0.01 1.445909,0.22636 -0.456338,-0.67456 -1.169291,-0.94672 -1.975079,-0.75553 z"
       sodipodi:nodetypes="cscsccc" />
    <path
       id="path238464"
       style="color:#000000;fill:#552773;fill-opacity:1;stroke-width:0.803358;stroke-linecap:round;stroke-linejoin:round;-inkscape-stroke:none"
       d="m -26.746175,293.73821 c -0.482432,-0.50634 -1.127343,-0.57693 -1.72444,-0.44911 -0.445656,0.11942 -0.846158,0.40841 -1.093988,0.83767 -0.480055,0.83149 -0.216173,1.89379 0.580842,2.41019 -0.356261,-0.55006 -0.400645,-1.27659 -0.05168,-1.88102 0.24783,-0.42926 0.648333,-0.71825 1.093989,-0.83767 0.418499,-0.11214 0.877848,-0.0758 1.287777,0.13435 z"
       sodipodi:nodetypes="ccscsscc" />
    <path
       id="path245134"
       style="color:#000000;fill:#552773;fill-opacity:1;stroke-width:0.803358;stroke-linecap:round;stroke-linejoin:round;-inkscape-stroke:none"
       d="m -20.1073,287.37886 c -0.445656,0.11941 -0.848223,0.40841 -1.096058,0.83767 -0.480175,0.83168 -0.216128,1.89498 0.58136,2.41122 -0.356829,-0.55018 -0.401363,-1.27728 -0.05219,-1.88205 0.247834,-0.42926 0.650401,-0.71827 1.096057,-0.83768 0.542961,-0.14549 1.02964,-0.009 1.443842,0.22587 -0.149468,-0.23083 -0.353979,-0.43073 -0.607715,-0.57723 -0.486295,-0.25462 -0.898388,-0.28895 -1.365296,-0.1778 z"
       sodipodi:nodetypes="cscccccc" />
  </g>
</svg>
